<?xml version="1.0" encoding="UTF-8" standalone="no"?>
<!-- Created with Inkscape (http://www.inkscape.org/) -->

<svg
   xmlns:dc="http://purl.org/dc/elements/1.1/"
   xmlns:cc="http://creativecommons.org/ns#"
   xmlns:rdf="http://www.w3.org/1999/02/22-rdf-syntax-ns#"
   xmlns:svg="http://www.w3.org/2000/svg"
   xmlns="http://www.w3.org/2000/svg"
   xmlns:sodipodi="http://sodipodi.sourceforge.net/DTD/sodipodi-0.dtd"
   xmlns:inkscape="http://www.inkscape.org/namespaces/inkscape"
   width="1600"
   height="800"
   id="svg2"
   version="1.1"
   inkscape:version="0.48.3.1 r9886"
   sodipodi:docname="logo_mytalk_v1.0.svg">
  <defs
     id="defs4">
    <inkscape:perspective
       sodipodi:type="inkscape:persp3d"
       inkscape:vp_x="0 : 526.18109 : 1"
       inkscape:vp_y="0 : 1000 : 0"
       inkscape:vp_z="744.09448 : 526.18109 : 1"
       inkscape:persp3d-origin="372.04724 : 350.78739 : 1"
       id="perspective10" />
    <inkscape:perspective
       id="perspective2828"
       inkscape:persp3d-origin="0.5 : 0.33333333 : 1"
       inkscape:vp_z="1 : 0.5 : 1"
       inkscape:vp_y="0 : 1000 : 0"
       inkscape:vp_x="0 : 0.5 : 1"
       sodipodi:type="inkscape:persp3d" />
    <inkscape:perspective
       id="perspective2888"
       inkscape:persp3d-origin="0.5 : 0.33333333 : 1"
       inkscape:vp_z="1 : 0.5 : 1"
       inkscape:vp_y="0 : 1000 : 0"
       inkscape:vp_x="0 : 0.5 : 1"
       sodipodi:type="inkscape:persp3d" />
    <inkscape:perspective
       id="perspective2930"
       inkscape:persp3d-origin="0.5 : 0.33333333 : 1"
       inkscape:vp_z="1 : 0.5 : 1"
       inkscape:vp_y="0 : 1000 : 0"
       inkscape:vp_x="0 : 0.5 : 1"
       sodipodi:type="inkscape:persp3d" />
    <inkscape:perspective
       id="perspective2990"
       inkscape:persp3d-origin="0.5 : 0.33333333 : 1"
       inkscape:vp_z="1 : 0.5 : 1"
       inkscape:vp_y="0 : 1000 : 0"
       inkscape:vp_x="0 : 0.5 : 1"
       sodipodi:type="inkscape:persp3d" />
    <filter
       id="filter2824"
       inkscape:label="Inner Shadow"
       inkscape:menu="Shadows and Glows"
       inkscape:menu-tooltip="Adds a colorizable drop shadow inside"
       color-interpolation-filters="sRGB">
      <feGaussianBlur
         id="feGaussianBlur2826"
         stdDeviation="3.4343150684931505"
         result="result8" />
      <feOffset
         id="feOffset2828"
         dx="4"
         dy="4"
         result="result11" />
      <feComposite
         id="feComposite2830"
         in2="result11"
         result="result6"
         in="SourceGraphic"
         operator="in" />
      <feFlood
         id="feFlood2832"
         result="result10"
         in="result6"
         flood-opacity="1"
         flood-color="rgb(0,0,0)" />
      <feBlend
         id="feBlend2834"
         in2="result10"
         mode="normal"
         in="result6"
         result="result12" />
      <feComposite
         id="feComposite2836"
         in2="SourceGraphic"
         result="result2"
         operator="in" />
    </filter>
    <filter
       id="filter2928"
       inkscape:menu-tooltip="Transparent plastic with deep colors"
       inkscape:menu="Bevels"
       inkscape:label="Deep colors plastic"
       color-interpolation-filters="sRGB">
      <feGaussianBlur
         id="feGaussianBlur2930"
         in="SourceGraphic"
         result="result6"
         stdDeviation="10" />
      <feComposite
         id="feComposite2932"
         in2="SourceGraphic"
         in="result6"
         operator="xor" />
      <feGaussianBlur
         id="feGaussianBlur2934"
         result="result2"
         stdDeviation="10" />
      <feComposite
         id="feComposite2936"
         in2="SourceGraphic"
         operator="atop"
         result="result91" />
      <feComposite
         id="feComposite2938"
         in2="result91"
         result="result4"
         in="result2"
         operator="xor" />
      <feGaussianBlur
         id="feGaussianBlur2940"
         in="result4"
         result="result3"
         stdDeviation="5" />
      <feSpecularLighting
         id="feSpecularLighting2942"
         lighting-color="#ffffff"
         in="result3"
         result="result5"
         specularExponent="35"
         specularConstant="3"
         surfaceScale="12">
        <feDistantLight
           id="feDistantLight2944"
           elevation="45"
           azimuth="235" />
      </feSpecularLighting>
      <feComposite
         id="feComposite2946"
         in2="result5"
         in="SourceGraphic"
         k3="0.7"
         k2="0.8"
         operator="arithmetic"
         result="result7"
         k1="0"
         k4="0" />
      <feComposite
         id="feComposite2948"
         in2="SourceGraphic"
         in="result7"
         operator="in" />
    </filter>
    <inkscape:perspective
       id="perspective2828-4"
       inkscape:persp3d-origin="0.5 : 0.33333333 : 1"
       inkscape:vp_z="1 : 0.5 : 1"
       inkscape:vp_y="0 : 1000 : 0"
       inkscape:vp_x="0 : 0.5 : 1"
       sodipodi:type="inkscape:persp3d" />
    <inkscape:perspective
       id="perspective3627"
       inkscape:persp3d-origin="0.5 : 0.33333333 : 1"
       inkscape:vp_z="1 : 0.5 : 1"
       inkscape:vp_y="0 : 1000 : 0"
       inkscape:vp_x="0 : 0.5 : 1"
       sodipodi:type="inkscape:persp3d" />
    <inkscape:perspective
       id="perspective3669"
       inkscape:persp3d-origin="0.5 : 0.33333333 : 1"
       inkscape:vp_z="1 : 0.5 : 1"
       inkscape:vp_y="0 : 1000 : 0"
       inkscape:vp_x="0 : 0.5 : 1"
       sodipodi:type="inkscape:persp3d" />
  </defs>
  <sodipodi:namedview
     id="base"
     pagecolor="#ffffff"
     bordercolor="#666666"
     borderopacity="1.0"
     inkscape:pageopacity="0.0"
     inkscape:pageshadow="2"
     inkscape:zoom="0.12374369"
     inkscape:cx="-2898.7873"
     inkscape:cy="478.38702"
     inkscape:document-units="px"
     inkscape:current-layer="layer1"
     showgrid="false"
     inkscape:window-width="1600"
     inkscape:window-height="828"
     inkscape:window-x="-2"
     inkscape:window-y="-3"
     inkscape:window-maximized="1" />
  <metadata
     id="metadata7">
    <rdf:RDF>
      <cc:Work
         rdf:about="">
        <dc:format>image/svg+xml</dc:format>
        <dc:type
           rdf:resource="http://purl.org/dc/dcmitype/StillImage" />
        <dc:title />
      </cc:Work>
    </rdf:RDF>
  </metadata>
  <g
     inkscape:label="Layer 1"
     inkscape:groupmode="layer"
     id="layer1"
     transform="translate(0,-252.36218)">
    <path
       style="fill:#00a000;fill-opacity:1;filter:url(#filter2928)"
       d="m 358.61605,277.01138 c -152.91909,0 -276.902595,141.90033 -276.902595,316.93774 0,11.42393 0.524,22.70618 1.554,33.81757 -29.3554,28.92488 -47.9475,71.78034 -47.9475,119.61631 0,87.12269 61.6627,157.76303 137.721905,157.76303 25.9822,0 50.295,-8.22765 71.0331,-22.5555 34.9105,18.18156 73.688,28.29633 114.54109,28.29633 23.7687,0 46.8328,-3.4337 68.8451,-9.88176 42.8086,72.73597 106.47071,118.8634 177.58291,118.8634 68.1354,0 129.4284,-42.3685 172.097,-109.89139 59.2646,39.9283 135.7616,63.99614 219.31509,63.99614 77.88565,0 149.65905,-20.91312 207.04275,-56.09073 42.8289,56.1976 99.9118,90.50438 162.6152,90.50438 132.9036,0 222.474,-154.08164 222.474,-344.16751 0,-190.08587 -89.5704,-344.19884 -222.474,-344.19884 -63.9832,0 -122.1424,35.73508 -165.2472,93.98648 -45.38,-52.29616 -135.9141,-97.91741 -245.86655,-96.32687 -93.78529,1.35667 -167.65749,32.5772 -207.72839,95.41747 -13.2814,-29.61838 -56.4808,-57.93121 -93.7405,-68.09344 -36.2771,-9.89425 -92.0116,2.44054 -112.2904,10.77891 -48.74471,-49.01429 -112.64221,-78.77172 -182.62501,-78.77172 z"
       id="path2870"
       inkscape:export-xdpi="90"
       inkscape:export-ydpi="90"
       sodipodi:nodetypes="cscsscscscscssscscacc"
       inkscape:connector-curvature="0" />
    <g
       transform="matrix(0.82451124,0,0,1.2128397,-30.834918,-25.911021)"
       style="font-size:326.39373779px;font-style:italic;font-variant:normal;font-weight:bold;font-stretch:normal;text-align:start;text-anchor:start;fill:#ffffff;fill-opacity:1;stroke:none;font-family:LMMathSymbols5;-inkscape-font-specification:Bitstream Charter Bold"
       id="text2816" />
    <path
       id="path3617"
       style="fill:#ffffff;fill-opacity:1;stroke:none;filter:url(#filter2824)"
       d="m 945.6572,419.40913 c -2.51292,0.0112 -4.9912,0.0495 -7.46875,0.0937 -53.51499,0.9551 -98.89259,9.36677 -123.90619,23.4375 -10.1172,5.69113 -24.5149,18.94485 -31.1562,28.65625 -6.7781,9.91033 -12.647,24.67791 -10.4063,26.15625 1.6189,1.06805 80.7981,4.02989 92.75,3.46875 3.3504,-0.15716 3.8872,-1.27179 3.9375,-8.15625 0.032,-4.38586 0.9676,-8.84717 2.0625,-9.90625 3.2696,-3.16279 34.8548,-9.66385 56.4687,-11.625 37.0906,-3.36541 82.48304,1.07989 115.90624,11.3125 l 12.6562,3.875 0.5,9.6875 0.5,9.71875 12.0938,0.46875 c 29.5808,1.15282 79.7241,2.26684 81.8125,1.8125 5.7118,-1.24267 -1.6111,-19.99347 -13.9688,-35.8125 -25.4713,-32.60617 -80.6219,-49.89937 -168.74995,-52.84375 -7.79489,-0.26043 -15.4925,-0.37746 -23.03125,-0.34375 z m -149.49994,83.53125 c -5.6164,-0.0185 -10.3944,0.0287 -14.2812,0.125 -7.0686,0.17517 -11.1487,0.57377 -11.7188,1.125 -1.2213,1.18174 -1.9405,5.09216 -1.625,8.75 0.7165,8.31708 5.5652,11.76982 19.3125,13.65625 26.7328,3.66826 74.6477,2.51536 79.2187,-1.90625 5.3875,-5.21112 5.0874,-19.86661 -0.4062,-20.0625 -29.3954,-1.04934 -53.6508,-1.6319 -70.5,-1.6875 z m 273.74994,7.125 c -3.0201,-0.006 -5.4247,0.0331 -7.3438,0.0937 -4.6057,0.14547 -6.3894,0.46986 -6.9375,1 -0.6994,0.67663 -0.7822,5.18306 -0.1562,10.03125 0.9636,7.46269 1.9293,9.13285 6.2187,10.78125 8.1674,3.13842 28.3871,4.99007 54.5313,5 25.8728,0.009 36.7039,-1.91736 39.1875,-6.90625 2.2046,-4.42865 1.6124,-15.03647 -0.9375,-16.71875 -1.2084,-0.79724 -18.1855,-1.84319 -37.75,-2.34375 -23.1968,-0.59348 -37.7522,-0.92072 -46.8125,-0.9375 z m 299.8091,-64.3292 c 0,0 47.6101,-15.76553 47.3054,0 -1.3219,68.4134 -21.5502,218.67099 -21.5502,218.67099 0,0 42.3104,-70.3576 63.4681,-105.57426 13.8846,-23.11053 63.6243,-16.57967 55.4525,0 -22.9418,46.54649 -85.544,134.36722 -85.544,134.36722 0,0 28.9524,89.58878 62.1541,156.1565 7.9959,16.03134 -45.783,16.04858 -53.7442,0 -16.59,-33.44278 -47.6997,-125.28835 -47.6997,-125.28835 0,0 -9.5407,87.00618 -12.352,125.28835 -1.1516,15.68244 -48.3401,15.68138 -47.174,0 8.1992,-110.26216 39.684,-403.62045 39.684,-403.62045 m -89.6513,-28.57142 c 0,0 48.0802,-15.74944 47.3055,0 -6.2183,126.4146 -24.5176,304.72337 -39.8154,437.90617 -1.7944,15.62195 -48.561,15.66339 -47.174,0 12.2657,-138.5188 39.6839,-437.90617 39.6839,-437.90617 m -165.5568,304.31827 c -15.0924,0.3824 -26.4394,4.02324 -34.0409,10.92251 -7.4932,6.7371 -11.076,16.56875 -10.7485,29.49502 0.2465,9.73473 2.6931,17.33775 7.3398,22.80905 4.7592,5.46854 11.1372,8.10151 19.1339,7.8989 12.3891,-0.31375 22.6176,-5.8425 30.6855,-16.58625 8.0636,-10.90324 13.2588,-26.04538 15.5855,-45.42656 l 1.103,-9.8487 -29.0583,0.73603 m 93.621,-34.70801 c 0,0 -18.1294,101.49384 -17.2436,153.4969 0.3436,20.16416 -46.7752,16.32518 -60.4818,1.53197 -9.0782,-9.79789 4.0618,-39.86497 4.0618,-39.86497 -9.5073,16.20954 -19.6827,28.28411 -30.5262,36.22376 -10.8477,7.78005 -22.7477,11.83411 -35.7,12.1622 -17.9081,0.45359 -32.3214,-5.7285 -43.24,-18.54627 -10.8099,-12.98023 -16.498,-30.64123 -17.0639,-52.98316 -0.865,-34.15102 7.7661,-60.47848 25.8931,-78.98239 18.2356,-18.66607 44.9235,-28.44423 80.0639,-29.33448 l 35.6471,-0.90292 0.506,-6.71969 c 0.2812,-2.24255 0.4097,-3.84269 0.3856,-4.80037 0.088,-0.96017 0.1223,-1.83932 0.1022,-2.63744 -0.2669,-10.53239 -4.0148,-18.34196 -11.2437,-23.42874 -7.1206,-5.2488 -17.6075,-7.69784 -31.4608,-7.34716 -12.5019,0.31688 -24.563,2.45878 -36.1834,6.42571 -11.6205,3.96735 -23.1692,24.51858 -33.5393,17.37715 -18.1205,-12.47879 -6.7449,-48.78598 7.4676,-65.58104 8.61,-10.17451 25.3124,-8.46556 38.4335,-11.03379 13.2295,-2.73014 26.94,-4.27506 41.1313,-4.6348 28.0445,-0.71007 49.0547,5.62429 63.0307,19.00311 13.9715,13.21978 21.311,33.79318 22.0186,61.72029 0.1373,5.42607 0.01,11.41762 -0.39,17.97467 -0.289,6.39498 -0.8452,13.35545 -1.6687,20.88146 M 923.10806,466.73337 c 9.65426,12.74644 7.0857,19.24356 0.5008,71.6867 -6.5849,52.44314 -10.4876,92.64719 -17.4203,138.73777 -8.9712,59.64317 -26.9619,149.6577 -31.2687,178.22004 -1.5951,10.57855 2.471,11.66709 12.3669,14.86161 22.7289,7.33716 38.0499,-17.80776 42.0767,-42.58036 20.15883,-124.01475 32.85585,-264.45233 66.99143,-356.86406 37.68581,-0.19049 -110.14313,-7.81015 -73.24683,-4.0617 z m -375.1036,33.48955 c 0,0 51.0132,-27.04879 53.8595,-14.77775 19.5636,84.34132 32.1504,246.03403 32.1504,246.03403 0,0 28.9167,-179.55959 48.1552,-251.08484 3.3346,-12.39762 48.4307,2.94669 46.3608,15.61701 -17.4507,106.82475 -78.9892,359.34865 -78.9892,359.34865 -8.6737,41.26924 -17.46,68.50268 -26.3595,81.70041 -8.8857,13.393 -21.0757,20.63535 -36.5699,21.72711 0,0 -22.9821,4.07233 -30.5109,-2.82996 -7.9229,-7.26353 -5.6489,-20.98078 -5.7498,-31.72885 -0.103,-10.97183 -2.8401,-25.09281 5.2603,-32.4939 4.0492,-3.69974 16.4142,-1.15644 16.4142,-1.15644 8.5218,-0.60046 14.9003,-3.9961 19.1356,-10.18692 4.3456,-6.0023 7.849,-16.36457 10.51,-31.08683 l 3.5541,-17.92787 m -65.4344,-120.80534 c -1.1699,-11.66714 -5.7562,-17.35221 -11.9646,-16.68613 -5.4635,0.58623 -9.23971,5.48372 -11.88561,9.1369 -2.2605,2.48877 -7.3039,9.76853 -9.3161,12.23061 -2.7062,-1.95587 -4.6676,-3.99172 -8.9685,-29.36178 -3.3028,-20.42316 -4.5841,-33.20146 -5.4754,-42.09074 -9.1919,-91.67028 -12.3772,-193.53163 -12.821,-225.49264 0.072,-11.80036 -0.04,-12.9115 -0.6522,-19.02288 -2.2841,-22.77863 -1.5496,-24.75546 -11.0364,-27.45524 -12.4475,-3.54236 -26.6476,10.91665 -31.2783,23.00159 -32.196,84.02331 -55.0903,171.87373 -104.8692,260.32983 -23.78369,-64.33043 -50.70669,-173.41111 -69.05899,-233.77466 -3.7648,-12.51182 -25.0567,-25.59188 -40.4036,-23.20641 -7.5059,1.16666 -12.3823,9.19018 -15.3833,16.81236 -5.1198,14.02658 -4.5325,22.38693 -3.2768,37.41416 4.4706,59.60668 2.849,126.04424 -4.0133,195.29007 -9.2714,90.28181 -14.2079,93.61926 -19.9198,94.23207 0,0 -10.9271,1.17231 -22.1166,-12.78916 -1.7685,-2.61804 -3.026,-4.15245 -4.8602,-3.40947 -19.4783,7.89018 -14.4823,35.80861 -11.8641,61.92075 1.8942,18.88965 5.6541,26.34801 14.7408,34.35808 9.9431,9.04119 19.8513,10.22442 23.5763,9.82476 22.8475,-2.45118 28.7058,-18.46023 44.7476,-97.46614 1.0698,-6.85342 22.9109,-96.33 23.3186,-192.39948 49.0894,144.10684 48.9112,167.25098 69.2268,202.13401 9.36979,15.8414 12.73979,19.41074 16.96159,18.9578 0,0 2.4835,-0.26641 4.8252,-4.44856 24.5484,-43.06559 44.7333,-89.594 57.4565,-117.91365 31.4483,-71.88351 41.7919,-88.93509 49.9985,-107.22373 3.2128,72.0958 9.5667,120.48774 12.0178,144.93314 4.5681,45.55736 10.9116,71.26993 11.6868,73.99455 6.9515,26.77034 20.1183,30.41175 27.0717,29.66577 11.4237,-1.22559 18.4794,-10.96747 29.31121,-25.60688 3.4721,-5.42648 16.5087,-23.11023 14.2246,-45.8889"
       sodipodi:nodetypes="csssssssscccccssscccssssssccsssscssscccscsscsscssccssscccscscccccssccscscccccscsssscccsccczssssccccscsccccssscccccscccsccssccscccccsscscccccccscsc"
       inkscape:connector-curvature="0" />
  </g>
</svg>
